<?xml version="1.0" encoding="UTF-8"?>
<svg id="Layer_1" xmlns="http://www.w3.org/2000/svg" version="1.1" viewBox="0 0 500 374.2">
  <!-- Generator: Adobe Illustrator 29.0.1, SVG Export Plug-In . SVG Version: 2.1.0 Build 192)  -->
  <defs>
    <style>
      .st0, .st1, .st2 {
        fill: #ffdcc4;
      }

      .st3, .st1, .st4, .st5, .st6, .st7, .st8, .st9, .st10, .st11, .st12, .st13, .st14 {
        isolation: isolate;
      }

      .st3, .st1, .st8, .st12 {
        opacity: .2;
      }

      .st15 {
        fill: #ebebeb;
      }

      .st16 {
        fill: #495d6f;
      }

      .st17 {
        fill: #263238;
      }

      .st18 {
        fill: #e6e6e6;
        opacity: .2;
      }

      .st19, .st4, .st5, .st6 {
        fill: #c3e6b7;
      }

      .st20 {
        fill: #181f25;
      }

      .st21, .st9, .st10, .st11, .st12, .st13, .st14 {
        fill: #fff;
      }

      .st22, .st7, .st8 {
        fill: #fec89a;
      }

      .st2 {
        opacity: .8;
      }

      .st4, .st11 {
        opacity: .3;
      }

      .st5, .st14 {
        opacity: .5;
      }

      .st6, .st13 {
        opacity: .6;
      }

      .st23 {
        fill: #f5f5f5;
      }

      .st7 {
        opacity: .4;
      }

      .st9 {
        opacity: .7;
      }

      .st10 {
        opacity: .8;
      }
    </style>
  </defs>
  <polygon class="st0" points="113.1 106.2 114.7 109.5 118.3 110 115.7 112.6 116.3 116.2 113.1 114.5 109.8 116.2 110.4 112.6 107.8 110 111.4 109.5 113.1 106.2"/>
  <polygon class="st0" points="436.7 260.5 438.3 263.7 441.9 264.3 439.3 266.8 439.9 270.4 436.7 268.7 433.5 270.4 434.1 266.8 431.5 264.3 435.1 263.7 436.7 260.5"/>
  <polygon class="st0" points="372.6 355.5 374.2 358.8 377.8 359.3 375.2 361.9 375.8 365.5 372.6 363.8 369.4 365.5 370 361.9 367.4 359.3 371 358.8 372.6 355.5"/>
  <path class="st0" d="M225.9,48.1l.6,1.2,1.4.2c.2,0,.4.2.3.4,0,0,0,.2-.1.2l-1,.9.2,1.3c0,.2-.1.4-.3.5,0,0-.2,0-.2,0l-1.2-.6-1.2.6c-.2.1-.4,0-.6-.2,0,0,0-.2,0-.2l.2-1.3-1-.9c-.2-.2-.2-.4,0-.6,0,0,.2-.1.2-.1l1.3-.2.6-1.2c0-.2.3-.3.5-.3.1,0,.2.1.3.3Z"/>
  <path class="st23" d="M60.8,340l.6,1.2,1.3.2c.2,0,.4.2.4.5,0,0,0,.2-.1.2l-1,.9.2,1.3c0,.2-.1.4-.3.5,0,0-.2,0-.2,0l-1.2-.6-1.2.6c-.2.1-.4,0-.6-.2,0,0,0-.2,0-.2l.2-1.3-1-.9c-.2-.2-.2-.4,0-.6,0,0,.1-.1.2-.1l1.3-.2.6-1.2c0-.2.3-.3.5-.3.1,0,.2.1.3.3Z"/>
  <path class="st0" d="M87.8,35.3l.6,1.2,1.3.2c.2,0,.4.2.3.5,0,0,0,.2-.1.2l-1,1,.2,1.3c0,.2,0,.4-.3.5,0,0-.2,0-.3,0l-1.2-.6-1.2.6c-.2.1-.4,0-.5-.1,0,0,0-.2,0-.3l.2-1.3-1-1c-.2-.2-.2-.4,0-.6,0,0,.1-.1.2-.1l1.3-.2.6-1.2c0-.2.3-.3.5-.2,0,0,.2.1.2.2Z"/>
  <path class="st15" d="M86.1,276.3c0,.7-.6,1.3-1.3,1.3-.7,0-1.3-.6-1.3-1.3,0-.7.6-1.3,1.3-1.3,0,0,0,0,0,0,.7,0,1.3.6,1.3,1.3Z"/>
  <path class="st0" d="M275.7,109.9c0,.7-.6,1.3-1.3,1.3-.7,0-1.3-.6-1.3-1.3,0-.7.6-1.3,1.3-1.3,0,0,0,0,0,0,.7,0,1.3.6,1.3,1.3,0,0,0,0,0,0Z"/>
  <path class="st23" d="M206.7,36.4c0,.7-.6,1.3-1.3,1.3-.7,0-1.3-.6-1.3-1.3s.6-1.3,1.3-1.3c.7,0,1.3.6,1.3,1.3Z"/>
  <circle class="st2" cx="207.1" cy="353.4" r="7.4"/>
  <path class="st18" d="M204.6,349.1c-1.5,0-3,.5-4.2,1.4-1.6,3.7,0,8,3.8,9.7,2.2.9,4.7.8,6.7-.4h0c1.9-3.5.6-7.8-2.9-9.7-1-.6-2.2-.9-3.4-.9h0Z"/>
  <g id="freepik--404--inject-17">
    <path class="st20" d="M147.7,225.6h-60.8v-27.5l60.8-72.3h29.1v73.9h15.1v25.9h-15.1v22.5h-29.1v-22.5ZM147.7,199.7v-37.8l-32.2,37.8h32.2Z"/>
    <path class="st20" d="M202.3,187.5c0-22.9,4.1-38.9,12.3-48,8.2-9.1,20.8-13.7,37.6-13.7,8.1,0,14.7,1,19.9,3,4.7,1.7,9,4.4,12.7,7.8,3.1,2.9,5.7,6.3,7.8,10.1,2,3.9,3.6,8.1,4.5,12.3,2.3,9.2,3.4,18.6,3.4,28,0,21.8-3.7,37.8-11.1,47.9s-20.1,15.2-38.1,15.2c-10.1,0-18.3-1.6-24.5-4.8-6.3-3.3-11.6-8.2-15.3-14.2-2.9-4.4-5.2-10.5-6.8-18.2-1.7-8.4-2.5-16.9-2.4-25.4ZM235.4,187.6c0,15.3,1.3,25.8,4.1,31.4,2.7,5.6,6.6,8.4,11.8,8.4,3.3,0,6.5-1.2,8.8-3.6,2.5-2.4,4.3-6.1,5.5-11.3,1.2-5.1,1.8-13.1,1.8-24,0-16-1.4-26.7-4.1-32.2-2.7-5.5-6.8-8.2-12.2-8.2-5.5,0-9.5,2.8-12,8.4-2.5,5.6-3.7,16-3.7,31.1Z"/>
    <path class="st20" d="M371.7,225.6h-60.8v-27.5l60.9-72.3h29.1v73.9h15.1v25.9h-15.1v22.5h-29.1v-22.5ZM371.7,199.7v-37.8l-32.1,37.8h32.1Z"/>
  </g>
  <path class="st19" d="M201,83.6c0,1-.8,1.9-1.9,1.9s-1.9-.8-1.9-1.9c0-1,.8-1.9,1.9-1.9,0,0,0,0,0,0,1,0,1.9.8,1.9,1.9,0,0,0,0,0,0Z"/>
  <circle class="st19" cx="73" cy="154.1" r="1.3"/>
  <circle class="st19" cx="291" cy="346.3" r="1.9"/>
  <circle class="st19" cx="336.5" cy="270" r="1.3"/>
  <path class="st19" d="M424.2,33.6c0,.7-.6,1.3-1.3,1.3s-1.3-.6-1.3-1.3.6-1.3,1.3-1.3,1.3.6,1.3,1.3h0Z"/>
  <path class="st19" d="M172.8,7c0,.7-.6,1.3-1.3,1.3s-1.3-.6-1.3-1.3.6-1.3,1.3-1.3c.7,0,1.3.6,1.3,1.3Z"/>
  <circle class="st19" cx="277.7" cy="74.9" r="1.3"/>
  <circle class="st0" cx="141.2" cy="54.3" r="21.9"/>
  <circle class="st9" cx="141.2" cy="54.3" r="21.9"/>
  <path class="st1" d="M133.7,37.8c-3,0-5.9.6-8.7,1.8-8.1,9-7.5,22.8,1.5,31,6.4,5.8,15.5,7.3,23.4,3.9h0c8.1-9,7.5-22.8-1.5-31-4-3.7-9.3-5.7-14.7-5.7h0Z"/>
  <path class="st8" d="M131.5,43.6c0,1.1-.9,2-2,2s-2-.9-2-2,.9-2,2-2,2,.9,2,2Z"/>
  <path class="st8" d="M155.1,41.6c0,1.1-.9,2-2,2s-2-.9-2-2,.9-2,2-2,2,.9,2,2Z"/>
  <path class="st8" d="M151.1,55.9c0,1.8-1.5,3.3-3.3,3.3s-3.3-1.5-3.3-3.3,1.5-3.3,3.3-3.3h0c1.8,0,3.3,1.5,3.3,3.3Z"/>
  <path class="st8" d="M140.6,65.2c0,2.4-2,4.4-4.4,4.4s-4.4-2-4.4-4.4,2-4.4,4.4-4.4,4.4,2,4.4,4.4h0Z"/>
  <circle class="st22" cx="382.2" cy="314.2" r="19.2"/>
  <circle class="st11" cx="382.2" cy="314.2" r="19.2"/>
  <path class="st7" d="M392.7,298.6c-10.4-2.1-20.5,4.6-22.7,15-1.5,7.6,1.7,15.5,8.2,19.8,1.8.4,3.7.5,5.6.3,10.6-1,18.3-10.4,17.3-20.9-.5-5.8-3.6-11-8.4-14.2h0Z"/>
  <path class="st16" d="M363.8,320c-20.5,9.7-5.2,17.1,23.7,6.7,26.8-9.6,37-21.8,13-18,1.3,5.1-32.3,18.1-36.7,11.3Z"/>
  <path class="st3" d="M394.1,125.8c-26.9,18.2-61.7,42.2-71.3,99.8h-2c9.4-57,42.9-81.6,69.8-99.8h3.6Z"/>
  <path class="st19" d="M255,306.2c-17,0-33.8-7.7-42-20.2-5.1-7.7-10.9-24,6.6-45.6l1.6,1.3c-12.4,15.3-14.6,30.6-6.4,43.2,10,15.3,33.6,23,53.7,17.5,20.6-5.6,33.1-23.5,34.4-49.2,4.1-87.8,50.8-114.9,84.8-134.6,21.2-12.3,36.5-21.1,33.1-39.8-.5-2.6-1.5-4.4-3.2-5.5-4.4-2.9-12.9-.9-22.7,1.4-19.3,4.5-45.8,10.7-61.5-16.1l1.7-1c15,25.5,39.6,19.8,59.3,15.2,10.3-2.4,19.2-4.5,24.2-1.1,2.1,1.4,3.5,3.6,4,6.8,3.6,20.1-13,29.7-34,41.9-33.7,19.5-79.8,46.2-83.9,133-1.3,26.6-14.3,45.2-35.8,51.1-4.5,1.2-9.2,1.8-13.9,1.8Z"/>
  <path class="st12" d="M255,306.2c-17,0-33.8-7.7-42-20.2-5.1-7.7-10.9-24,6.6-45.6l1.6,1.3c-12.4,15.3-14.6,30.6-6.4,43.2,10,15.3,33.6,23,53.7,17.5,20.6-5.6,33.1-23.5,34.4-49.2,4.1-87.8,50.8-114.9,84.8-134.6,21.2-12.3,36.5-21.1,33.1-39.8-.5-2.6-1.5-4.4-3.2-5.5-4.4-2.9-12.9-.9-22.7,1.4-19.3,4.5-45.8,10.7-61.5-16.1l1.7-1c15,25.5,39.6,19.8,59.3,15.2,10.3-2.4,19.2-4.5,24.2-1.1,2.1,1.4,3.5,3.6,4,6.8,3.6,20.1-13,29.7-34,41.9-33.7,19.5-79.8,46.2-83.9,133-1.3,26.6-14.3,45.2-35.8,51.1-4.5,1.2-9.2,1.8-13.9,1.8Z"/>
  <path class="st19" d="M312.8,35c4.6,0,9.2.7,13.6,2.1,0,0,11,18.8,12.3,23.1-.5,4.2-7.6,11.2-7.6,11.2l-18.3-36.4Z"/>
  <path class="st11" d="M312.8,35c4.6,0,9.2.7,13.6,2.1,0,0,11,18.8,12.3,23.1-.5,4.2-7.6,11.2-7.6,11.2l-18.3-36.4Z"/>
  <path class="st19" d="M345.3,126.1c-4.2-5.2-8.1-10.7-11.6-16.4-.8-1.4-1.6-2.9-2.4-4.4-.4-.9-.8-1.7-1.2-2.6-.5-.8-.9-1.7-1.2-2.7-1.2-12.7,3.1-22-1-32.2l-16.5,6.4s1.4,18.1,4.6,29c2,6.7,6.5,12.6,10.8,17.9,1.4,1.7,2.6,3.4,4,5.1s2.7,3.1,4,4.6c2,2.4,2.6,4.7,1.1,7.6l-.2.4c-.4.7,1.5,1.6,2.8,0,2-2.6,1.7-2.4,3.5-4.6,1.1-1.3,2.3-2.8,3.3-4,1-1.2,1.1-3,0-4.3Z"/>
  <path class="st9" d="M345.3,126.1c-4.2-5.2-8.1-10.7-11.6-16.4-.8-1.4-1.6-2.9-2.4-4.4-.4-.9-.8-1.7-1.2-2.6-.5-.8-.9-1.7-1.2-2.7-1.2-12.7,3.1-22-1-32.2l-16.5,6.4s1.4,18.1,4.6,29c2,6.7,6.5,12.6,10.8,17.9,1.4,1.7,2.6,3.4,4,5.1s2.7,3.1,4,4.6c2,2.4,2.6,4.7,1.1,7.6l-.2.4c-.4.7,1.5,1.6,2.8,0,2-2.6,1.7-2.4,3.5-4.6,1.1-1.3,2.3-2.8,3.3-4,1-1.2,1.1-3,0-4.3Z"/>
  <path class="st4" d="M341.3,120.9c-2.6,2.8-5.5,5.3-8.7,7.5.4.5.9,1,1.3,1.5,3.1-2.1,6-4.6,8.5-7.5l-1.1-1.5Z"/>
  <path class="st4" d="M345.3,126.1h-.1c-.8.7-1.2,1.9-1.3,3,0,.8,0,1.6.4,2.4l1-1.1c1-1.2,1-3,0-4.2Z"/>
  <path class="st19" d="M307.8,40.7c-2.1-1.8-5.2-1.7-7.1.4-1.5,2-3.2,4-4.9,5.8-.8.8-1.6,1.5-2.5,2.1-.4.3-.8.6-1.3.8h0c-.1,0-.3,0-.4,0-.5-.2-1.1-.4-1.6-.7-1.1-.5-2.3-1.2-3.5-1.9-1.9-1.2-3.9-2.5-5.9-3.7-.5-1-.4-2.6-.2-4.1.2-1.5-.6-1.6-1.2-1.2-.4.5-.7,1-.8,1.6-.2-.3-.5-.6-.8-.9l-1.5-1.5c-.6-.6-1.7-.7-2.3,0l-1.2,1.1c-.6.5-.7,1.4-.3,2.1l1.2,2s.7,2.1,2.2,2.9c0,.3.2.6.4.9,1.8,2.4,3.8,4.7,6,6.7,1.1,1.1,2.3,2.1,3.6,3,.7.5,1.4,1,2.2,1.4.9.6,1.9,1,2.9,1.3.8.2,1.7.3,2.5.2.3,0,.6,0,.9-.1h.5c0-.1.2-.2.2-.2l.7-.2c.9-.3,1.7-.7,2.6-1.1,1.6-.8,3.1-1.8,4.4-3,2.4-2.1,4.6-4.5,6.4-7.2h-.1c1.3-2,.9-4.7-.9-6.3ZM292.6,49.9c-.1,0-.3,0-.4,0,0,0,0,0,0,0,.4,0,.4,0,.4,0Z"/>
  <path class="st9" d="M307.8,40.7c-2.1-1.8-5.2-1.7-7.1.4-1.5,2-3.2,4-4.9,5.8-.8.8-1.6,1.5-2.5,2.1-.4.3-.8.6-1.3.8h0c-.1,0-.3,0-.4,0-.5-.2-1.1-.4-1.6-.7-1.1-.5-2.3-1.2-3.5-1.9-1.9-1.2-3.9-2.5-5.9-3.7-.5-1-.4-2.6-.2-4.1.2-1.5-.6-1.6-1.2-1.2-.4.5-.7,1-.8,1.6-.2-.3-.5-.6-.8-.9l-1.5-1.5c-.6-.6-1.7-.7-2.3,0l-1.2,1.1c-.6.5-.7,1.4-.3,2.1l1.2,2s.7,2.1,2.2,2.9c0,.3.2.6.4.9,1.8,2.4,3.8,4.7,6,6.7,1.1,1.1,2.3,2.1,3.6,3,.7.5,1.4,1,2.2,1.4.9.6,1.9,1,2.9,1.3.8.2,1.7.3,2.5.2.3,0,.6,0,.9-.1h.5c0-.1.2-.2.2-.2l.7-.2c.9-.3,1.7-.7,2.6-1.1,1.6-.8,3.1-1.8,4.4-3,2.4-2.1,4.6-4.5,6.4-7.2h-.1c1.3-2,.9-4.7-.9-6.3ZM292.6,49.9c-.1,0-.3,0-.4,0,0,0,0,0,0,0,.4,0,.4,0,.4,0Z"/>
  <path class="st19" d="M317.7,33.2c-5.4,1.4-10.6,3.6-15.3,6.5-1.5,1-2.3,2.8-1.9,4.5,1.9,9.4,6.3,22.1,11.1,30.1l22.1-9.2c.1-3.9-5.2-16.5-10.7-28.7-1-2.2-2.9-3.8-5.2-3.3Z"/>
  <path class="st10" d="M317.7,33.2c-5.4,1.4-10.6,3.6-15.3,6.5-1.5,1-2.3,2.8-1.9,4.5,1.9,9.4,6.3,22.1,11.1,30.1l22.1-9.2c.1-3.9-5.2-16.5-10.7-28.7-1-2.2-2.9-3.8-5.2-3.3Z"/>
  <path class="st4" d="M326.3,44.2l-4.4-1.5c1,2.6,4.5,5.8,7,7.7-.8-2-1.7-4.1-2.6-6.3Z"/>
  <path class="st19" d="M316.2,23.3c-1.8-3.5-5.8-5.2-10.5-4.8-4,.3-7.5,4.4-7.1,6.6s3.8,3.1,4.4,3.9l-2.8,2c-1.3,1-1.6,2.8-.7,4.2,0,0,0,0,0,.1,1.2,1.5,2.7,3,3.6,4.1,7.7-.2,13.3-3.1,15.4-5.9-.8-3.6-.6-6.7-2.4-10.2Z"/>
  <path class="st10" d="M316.2,23.3c-1.8-3.5-5.8-5.2-10.5-4.8-4,.3-7.5,4.4-7.1,6.6s3.8,3.1,4.4,3.9l-2.8,2c-1.3,1-1.6,2.8-.7,4.2,0,0,0,0,0,.1,1.2,1.5,2.7,3,3.6,4.1,7.7-.2,13.3-3.1,15.4-5.9-.8-3.6-.6-6.7-2.4-10.2Z"/>
  <path class="st17" d="M312.5,25.5c1.5,3.9-.4,8.3-4.3,9.8-3.9,1.5-8.3-.4-9.8-4.3-1.5-3.9.4-8.3,4.3-9.8,3.9-1.5,8.3.4,9.8,4.3Z"/>
  <path class="st19" d="M377.4,115.6c-.1-3.3-.3-3-.4-5.8,0-1.7,0-3.6,0-5.2,0-1.6-1.1-3-2.7-3.3-1.3-.3-2.6-.5-4-.8-1.7-.4-3.4-.8-5.1-1.3-1.3-.4-2.6-.8-3.9-1.3s-2.7-1-4.1-1.6c-1.6-.7-3.1-1.4-4.7-2.1-1.7-.8-3.4-1.7-5.1-2.6-6.6-10.9-6.7-18.1-13.8-26.5l-15.2,6.9s11.1,19.8,18.7,28.1c4.4,4.8,11.2,7,17.3,8.6,4.4,1.1,8.9,2,13.4,2.8,1.7.3,3.6.4,5.1,1.5,1.1.9,1.9,2.1,2.1,3.4,0,.3.1.6.2.8.2.8,2.2.2,2.2-1.8Z"/>
  <path class="st10" d="M377.4,115.6c-.1-3.3-.3-3-.4-5.8,0-1.7,0-3.6,0-5.2,0-1.6-1.1-3-2.7-3.3-1.3-.3-2.6-.5-4-.8-1.7-.4-3.4-.8-5.1-1.3-1.3-.4-2.6-.8-3.9-1.3s-2.7-1-4.1-1.6c-1.6-.7-3.1-1.4-4.7-2.1-1.7-.8-3.4-1.7-5.1-2.6-6.6-10.9-6.7-18.1-13.8-26.5l-15.2,6.9s11.1,19.8,18.7,28.1c4.4,4.8,11.2,7,17.3,8.6,4.4,1.1,8.9,2,13.4,2.8,1.7.3,3.6.4,5.1,1.5,1.1.9,1.9,2.1,2.1,3.4,0,.3.1.6.2.8.2.8,2.2.2,2.2-1.8Z"/>
  <path class="st4" d="M369.7,100.4c-.6-.1-1.2-.3-1.8-.4,0,3.5-1.6,9.4-2.2,11.2l1.9.4c1.2-3.6,1.9-7.4,2.1-11.2Z"/>
  <path class="st4" d="M377,104.6c0-1.6-1.1-3-2.7-3.3l-1-.2c.2,1.1.7,2.2,1.6,2.9.6.5,1.3.9,2,1.1,0-.2,0-.4,0-.6Z"/>
  <path class="st21" d="M311,25.5c.4,1.5-1.3,3.1-2.6,1.8-1.3-1.4-2.6-2.6-4.1-3.7-1.4-.9.5-2.4,2.6-1.8,1.9.5,3.4,1.9,4.1,3.7Z"/>
  <path class="st19" d="M311.2,73.8c-.7.3.6,1.5.6,1.5,0,0,14-4.8,22.5-9.7,0-.6-.2-1.2-.7-1.6-7.3,3.7-14.8,7-22.4,9.8Z"/>
  <path class="st14" d="M311.2,73.8c-.7.3.6,1.5.6,1.5,0,0,14-4.8,22.5-9.7,0-.6-.2-1.2-.7-1.6-7.3,3.7-14.8,7-22.4,9.8Z"/>
  <path class="st19" d="M349.7,63.7l-.9-2.1s-.4-2.1-1.6-3.2c-1.1-2.8-2.4-5.5-3.9-8.1-.8-1.4-1.6-2.7-2.6-4-.2-.3-.5-.7-.8-1s-.5-.7-.9-1c-.3-.4-.6-.7-1-1l-.6-.5-.5-.4c-1.3-1-2.5-2-3.8-2.9-1.3-.9-2.5-1.7-3.8-2.5-2.7-1.6-5.2-3.1-8-4.5h0c-2.4-1.4-5.5-.5-6.8,2-1.3,2.4-.4,5.5,2.1,6.8l7.6,4.2c2.5,1.4,5,2.8,7.3,4.2,1.6.9,3.6,3,5.5,5.1,1.6,1.7,3.2,3.5,4.8,5.3,0,1-.2,2.4-.5,3.5-.5,1.5.3,1.6,1,1.4.4-.2.7-.8,1.1-1.5.2.3.4.7.6,1l1.2,1.7c.5.7,1.5.9,2.3.4l1.4-.9c.7-.4.9-1.3.6-2Z"/>
  <path class="st10" d="M349.7,63.7l-.9-2.1s-.4-2.1-1.6-3.2c-1.1-2.8-2.4-5.5-3.9-8.1-.8-1.4-1.6-2.7-2.6-4-.2-.3-.5-.7-.8-1s-.5-.7-.9-1c-.3-.4-.6-.7-1-1l-.6-.5-.5-.4c-1.3-1-2.5-2-3.8-2.9-1.3-.9-2.5-1.7-3.8-2.5-2.7-1.6-5.2-3.1-8-4.5h0c-2.4-1.4-5.5-.5-6.8,2-1.3,2.4-.4,5.5,2.1,6.8l7.6,4.2c2.5,1.4,5,2.8,7.3,4.2,1.6.9,3.6,3,5.5,5.1,1.6,1.7,3.2,3.5,4.8,5.3,0,1-.2,2.4-.5,3.5-.5,1.5.3,1.6,1,1.4.4-.2.7-.8,1.1-1.5.2.3.4.7.6,1l1.2,1.7c.5.7,1.5.9,2.3.4l1.4-.9c.7-.4.9-1.3.6-2Z"/>
  <path class="st4" d="M317.2,44h-1.2c0,0-7.5,18.2-7.5,18.2.4,0,.8,0,1.2,0,0,0,9.8-3.6,12.7-5-2-4.1-5.2-13.1-5.2-13.1Z"/>
  <path class="st21" d="M303.6,48.8c.9,4.7,2.6,9.3,5,13.4,3.7-1.3,9.8-3.6,12.7-5-2-4.3-3.8-8.6-5.3-13.1-3.1.2-10,2.8-12.4,4.6Z"/>
  <path class="st4" d="M311,52.7c-.4,1.4-1.8,2.1-3.2,1.7-1.4-.4-2.1-1.8-1.7-3.2s1.8-2.1,3.2-1.7c0,0,0,0,0,0,1.4.4,2.1,1.8,1.7,3.2Z"/>
  <path class="st6" d="M312.9,49.2c-.1.5-.6.7-1,.6-.5-.1-.7-.6-.6-1,.1-.5.6-.7,1-.6,0,0,0,0,0,0,.4.1.7.6.6,1Z"/>
  <path class="st6" d="M315.1,48.4c0,.5-.5.8-1,.7-.5,0-.8-.5-.7-1,0,0,0-.1,0-.2.1-.4.6-.7,1-.6,0,0,0,0,0,0,.4.1.7.6.6,1Z"/>
  <polygon class="st5" points="318.3 56.2 309 59.8 308.5 58 317.7 54.3 318.3 56.2"/>
  <path class="st3" d="M267.3,195.1c0,5.8-.6,11.6-1.7,17.4-1.2,5.1-3,8.9-5.5,11.3-2.3,2.3-5.5,3.6-8.8,3.6-5.1,0-9.1-2.8-11.8-8.4-.5-1-.9-2-1.2-3.1-5.7,4.9-11,10.3-15.9,16l-5.3,6.3c2.9,2.9,6.2,5.3,9.8,7.2,6.2,3.2,14.4,4.8,24.5,4.8,1.8,0,3.5,0,5.2-.1,6.1-9.1,11.2-18.8,15.1-29l14.9-38.7-19.2,12.9Z"/>
  <path class="st17" d="M133.4,248l17.5,17.5,49-46.2c-16.9-6.5-49.7,11.9-66.5,28.7Z"/>
  <path class="st17" d="M194.4,309c-5.6-5.6-17.5-17.5-17.5-17.5l46.2-49c6.4,16.9-11.9,49.7-28.7,66.5Z"/>
  <path class="st19" d="M261.4,198.7l19.1-36.8-36.8,19.1c-11.8,6.1-22.7,13.9-32.4,23l-62.8,59.1,30.8,30.8,59.1-62.8c9.1-9.7,16.9-20.6,23-32.4Z"/>
  <path class="st13" d="M260.8,199.3l19.1-36.8-36.8,19.1c-11.8,6.1-22.7,13.9-32.4,23l-62.8,59.1,30.8,30.8,59.1-62.8c9.1-9.7,16.9-20.6,23-32.4Z"/>
  <circle class="st21" cx="222.2" cy="220.2" r="12.9"/>
  <circle class="st16" cx="222.2" cy="220.2" r="8.3"/>
  <polygon class="st4" points="189.8 282.8 159.6 252.6 184.3 229.3 213 258.1 189.8 282.8"/>
  <path class="st22" d="M140.2,275.6c-22.6,1.8-30.1,16.3-32.7,35.5-1.3,9.8-1.9,19.7-10.1,25.5-1.3.9-1.6,2.6-.7,3.8.5.8,1.4,1.2,2.4,1.2,30.3-1,44.5-15.8,46.3-22-.5,3.2-1.3,6.4-2.5,9.5-.6,1.4.1,3,1.5,3.6.8.3,1.7.3,2.5-.2,8.5-5.3,19.2-15.1,19.9-31.1-6.3-8.9-26.5-25.9-26.5-25.9Z"/>
  <path class="st12" d="M140.2,275.9c-22.6,1.8-30.1,16.3-32.7,35.5-1.3,9.8-1.9,19.7-10.1,25.5-1.3.9-1.6,2.6-.7,3.8.5.8,1.4,1.2,2.4,1.2,30.3-1,44.5-15.8,46.3-22-.5,3.2-1.3,6.4-2.5,9.5-.6,1.4.1,3,1.5,3.6.8.3,1.7.3,2.5-.2,8.5-5.3,19.2-15.1,19.9-31.1-6.3-8.9-26.5-25.9-26.5-25.9Z"/>
  <polygon class="st16" points="170.3 308.3 134.1 272.1 153.4 267.9 174.4 289 170.3 308.3"/>
</svg>