<?xml version="1.0" encoding="UTF-8"?>
<svg id="Layer_1" data-name="Layer 1" xmlns="http://www.w3.org/2000/svg" viewBox="0 0 500.28 200">
  <defs>
    <style>
      .cls-1 {
        fill: #fff;
      }
    </style>
  </defs>
  <g>
    <path class="cls-1" d="m193.51,77.49s0,0,0,0c.18.12.4.16.61.09,1.32-.44,4.48-1.58,5.31-2.78,1.05-1.51.67-3.59-.84-4.64-1.51-1.05-3.59-.67-4.64.84-.83,1.2-.8,4.56-.74,5.95.01.22.12.42.3.54Z"/>
    <path class="cls-1" d="m183.57,71.63c-1.38,1.21-1.52,3.32-.31,4.7.96,1.1,4.23,1.87,5.59,2.16.21.04.43-.01.6-.16,0,0,0,0,0,0,.16-.14.25-.35.23-.57-.1-1.39-.45-4.73-1.41-5.82-1.21-1.38-3.32-1.52-4.7-.31Z"/>
    <path class="cls-1" d="m194.78,80.53c-.21.06-.37.22-.45.42,0,0,0,0,0,0-.08.2-.05.43.06.62.74,1.17,2.61,3.96,3.98,4.48,1.72.65,3.65-.22,4.3-1.94.65-1.72-.22-3.65-1.94-4.3-1.36-.52-4.61.33-5.95.72Z"/>
    <path class="cls-1" d="m288.83,66.03c-4.65-5.77-12.44-10.35-23.18-13.64l-9.98-2.88c-7.32-2.49-12.91-5.22-16.63-8.14-3.62-2.84-5.46-6.74-5.46-11.58s2.1-8.81,6.42-11.54c4.34-2.75,9.03-4.14,13.94-4.14,5.34,0,9.38.97,12.02,2.9,2.66,1.94,5.42,5.37,8.18,10.17l7.94,14.07h3.06l1.38-24.89-.31-.16c-4.76-2.53-9.78-4.45-14.91-5.72-5.14-1.27-10.69-1.91-16.48-1.91-14.45,0-25.72,3.49-33.5,10.37-7.8,6.9-11.75,15.41-11.75,25.32,0,8.26,2.67,15.34,7.93,21.05,5.23,5.68,12.49,9.92,21.59,12.6l9.35,2.89c8.32,2.48,14.08,5.28,17.11,8.31,2.99,2.99,4.51,6.9,4.51,11.62,0,5.13-2.13,9.28-6.33,12.34-4.26,3.1-9.94,4.68-16.91,4.68-5.93,0-10.87-1.42-14.68-4.23-3.85-2.83-7.43-7.23-10.63-13.06l-7.72-13.62h-3.09l-.22,26.2c-10.34-6.77-16.45-17.36-18.71-32.08-.05-.3-.33-.51-.63-.46-.3.05-.51.33-.46.63,3.68,23.94,17.26,37.23,42.32,41.02,4.22.76,8.76,1.15,13.6,1.15.47,0,.93-.01,1.39-.02.53,0,1.05.02,1.59.02.08,0,.16-.02.23-.05,13.95-.43,25.06-3.74,33.04-9.84,8.63-6.6,13-15.5,13-26.45,0-8.09-2.36-15.13-7.02-20.91Z"/>
  </g>
  <g>
    <path class="cls-1" d="m20.8,175.63h-2l-.51-12.33h2.11c.65,2.59,1.41,4.57,2.28,5.94.88,1.37,1.94,2.3,3.2,2.8,1.26.5,2.78.74,4.57.74,1.37,0,2.58-.19,3.63-.57,1.05-.38,1.88-.99,2.48-1.83.61-.84.91-1.94.91-3.31,0-1.67-.44-3.05-1.31-4.14s-2.02-2.04-3.43-2.86c-1.41-.82-2.88-1.65-4.4-2.48-1.6-.88-3.12-1.8-4.57-2.77-1.45-.97-2.62-2.16-3.51-3.57-.89-1.41-1.34-3.16-1.34-5.25s.5-3.77,1.51-5.14c1.01-1.37,2.37-2.42,4.08-3.14,1.71-.72,3.65-1.08,5.82-1.08,1.64,0,2.93.13,3.88.4.95.27,1.71.54,2.28.83.57.29,1.08.43,1.54.43.42,0,.78-.11,1.08-.34.3-.23.53-.63.69-1.2h1.71l.34,11.59h-2c-.8-3.27-1.88-5.64-3.23-7.11-1.35-1.47-3.36-2.18-6.02-2.14-1.98,0-3.49.42-4.54,1.26-1.05.84-1.57,2.09-1.57,3.77,0,1.41.4,2.61,1.2,3.6.8.99,1.86,1.87,3.17,2.63,1.31.76,2.69,1.54,4.14,2.34,1.26.69,2.52,1.39,3.8,2.11,1.27.72,2.44,1.55,3.48,2.48,1.05.93,1.88,2.04,2.51,3.31.63,1.28.94,2.77.94,4.48,0,2.25-.53,4.15-1.6,5.71-1.07,1.56-2.54,2.74-4.43,3.54-1.88.8-4.03,1.2-6.42,1.2-1.94,0-3.49-.14-4.65-.43-1.16-.29-2.07-.57-2.71-.86-.65-.29-1.18-.43-1.6-.43s-.77.17-1.06.51c-.29.34-.45.78-.49,1.31Z"/>
    <path class="cls-1" d="m49.64,188.25c-1.22,0-2.24-.25-3.05-.74-.82-.5-1.23-1.31-1.23-2.46,0-.91.27-1.58.8-2,.53-.42,1.16-.63,1.88-.63.99,0,1.88.22,2.66.66.78.44,1.42.66,1.91.66.57,0,1.16-.36,1.77-1.08.61-.72,1.2-1.6,1.77-2.63.57-1.03,1.03-2.02,1.37-2.97.34-.95.51-1.66.51-2.11,0-.57-.24-1.42-.71-2.54-.48-1.12-.94-2.14-1.4-3.06l-8.34-17.65c-.27-.65-.65-1.15-1.14-1.51-.5-.36-1.26-.54-2.28-.54v-1.83h13.25v1.88c-1.26,0-2.11.12-2.57.37-.46.25-.68.62-.68,1.11,0,.38.09.79.29,1.23.19.44.38.87.57,1.29l5.42,11.88.86,2.8h.4l5.42-15.99c.08-.19.13-.42.17-.69.04-.27.06-.48.06-.63,0-.57-.29-.95-.86-1.14-.57-.19-1.31-.29-2.23-.29v-1.83h9.99v1.83c-1.14,0-1.98.25-2.51.74-.53.5-1.01,1.29-1.43,2.4l-9.31,23.18c-1.14,2.85-2.28,5.19-3.4,7-1.12,1.81-2.32,3.14-3.6,4-1.28.86-2.73,1.29-4.37,1.29Z"/>
    <path class="cls-1" d="m89.15,174.83h-13.99v-1.83c1.22,0,2.1-.11,2.66-.34s.9-.64,1.06-1.23c.15-.59.23-1.44.23-2.54v-15.59c0-1.07-.19-1.76-.57-2.08-.38-.32-.97-.49-1.77-.49-.46,0-.97.04-1.54.11v-1.88l7.65-1.66h1.88v5.31l.17,1.37v15.02c0,1.07.1,1.88.31,2.46.21.57.62.97,1.23,1.2.61.23,1.5.34,2.68.34v1.83Zm16.9,0h-14.22v-1.83c1.29,0,2.23-.13,2.8-.4.57-.27.94-.74,1.11-1.43.17-.69.26-1.66.26-2.91v-10.51c0-2.55-.41-4.25-1.23-5.11-.82-.86-1.89-1.28-3.23-1.28-.99,0-1.91.2-2.77.6-.86.4-1.65.88-2.37,1.43-.72.55-1.35,1.11-1.88,1.68l-.46-3.14h.97c1.45-1.29,2.88-2.42,4.31-3.37,1.43-.95,3.11-1.43,5.05-1.43s3.55.54,4.71,1.63c1.16,1.08,1.97,2.5,2.43,4.25.08.27.13.54.17.83s.08.58.11.89v13.53c0,1.22.09,2.17.26,2.85.17.69.56,1.17,1.17,1.46.61.29,1.54.43,2.8.43v1.83Zm16.56,0h-13.82v-1.83c1.26,0,2.16-.16,2.71-.49.55-.32.89-.83,1.03-1.51.13-.69.2-1.6.2-2.74v-10.28c0-1.79-.2-3.15-.6-4.08-.4-.93-.95-1.59-1.66-1.97-.71-.38-1.51-.57-2.43-.57-1.22,0-2.42.4-3.6,1.2-1.18.8-2.23,1.62-3.14,2.46l-.74-2.97h.91c1.52-1.56,3.04-2.77,4.54-3.63s3.07-1.28,4.71-1.28c2.4,0,4.3.77,5.71,2.31,1.41,1.54,2.11,4.08,2.11,7.62v11.19c0,1.14.08,2.07.23,2.77.15.71.51,1.21,1.08,1.51.57.31,1.48.46,2.74.46v1.83Z"/>
    <path class="cls-1" d="m140.43,187.39h-15.53v-1.83c1.79,0,2.93-.29,3.43-.86.5-.57.74-1.66.74-3.25v-27.87c0-1.14-.12-1.92-.37-2.34-.25-.42-.85-.63-1.8-.63-.38,0-.99.04-1.83.11v-1.88l7.71-1.6h2v4.8h.23c1.41-1.56,2.82-2.77,4.23-3.63,1.41-.86,2.97-1.28,4.68-1.28,1.9,0,3.56.51,4.97,1.54,1.41,1.03,2.51,2.49,3.31,4.4.8,1.9,1.2,4.19,1.2,6.85,0,3.24-.56,6.01-1.68,8.31-1.12,2.3-2.64,4.07-4.54,5.31-1.9,1.24-4.02,1.86-6.34,1.86-1.07,0-2.08-.11-3.03-.34-.95-.23-1.85-.63-2.68-1.2h-.23v7.19c0,1.22.15,2.15.46,2.8.3.65.86,1.08,1.66,1.31.8.23,1.94.34,3.43.34v1.88Zm.17-14.5c1.87,0,3.41-.9,4.63-2.71,1.22-1.81,1.83-4.69,1.83-8.65,0-3.5-.52-6.05-1.57-7.65-1.05-1.6-2.52-2.4-4.43-2.4-1.41,0-2.65.37-3.71,1.11-1.07.74-1.88,1.46-2.46,2.14v14.68c.34.38.78.85,1.31,1.4.53.55,1.16,1.04,1.88,1.46.72.42,1.56.63,2.51.63Z"/>
    <path class="cls-1" d="m170.92,174.83h-14.05v-1.83c1.52,0,2.57-.22,3.14-.66.57-.44.86-1.44.86-3v-28.89c0-.99-.27-1.62-.8-1.88-.53-.27-1.18-.4-1.94-.4-.46,0-1.01.04-1.66.11v-1.83l8.05-1.94h2.17v34.6c0,.95.08,1.71.23,2.28.15.57.53.98,1.14,1.23.61.25,1.56.37,2.85.37v1.83Zm17.36,0h-13.99v-1.83c1.29,0,2.22-.13,2.77-.4.55-.27.89-.69,1.03-1.26.13-.57.2-1.33.2-2.28v-9.25c0-1.52-.09-2.93-.29-4.23-.19-1.29-.64-2.32-1.34-3.08-.71-.76-1.82-1.14-3.34-1.14-1.14,0-2.28.29-3.4.86-1.12.57-2.45,1.58-3.97,3.03l.06-3.37h.91c1.71-1.67,3.26-2.88,4.65-3.63,1.39-.74,2.88-1.11,4.48-1.11s2.86.29,3.91.88c1.05.59,1.88,1.39,2.48,2.4.61,1.01,1.04,2.15,1.29,3.43.25,1.28.37,2.6.37,3.97v11.08c0,1.52.26,2.59.77,3.2.51.61,1.65.91,3.4.91v1.83Z"/>
    <path class="cls-1" d="m204.44,175.4c-4.15,0-7.38-1.22-9.68-3.65-2.3-2.44-3.45-6-3.45-10.68,0-2.74.52-5.16,1.57-7.25,1.05-2.09,2.56-3.73,4.54-4.91,1.98-1.18,4.34-1.77,7.08-1.77,4.11,0,7.3,1.21,9.56,3.63,2.26,2.42,3.4,5.72,3.4,9.91,0,3.24-.53,5.95-1.6,8.14-1.07,2.19-2.58,3.84-4.54,4.94-1.96,1.1-4.25,1.66-6.88,1.66Zm.23-2.46c1.45,0,2.66-.38,3.63-1.14.97-.76,1.68-2.01,2.14-3.74.46-1.73.69-4.08.69-7.05,0-3.5-.57-6.3-1.71-8.39-1.14-2.09-2.88-3.14-5.2-3.14-2.06,0-3.66.93-4.8,2.8-1.14,1.87-1.71,4.57-1.71,8.11,0,4.38.59,7.58,1.77,9.59,1.18,2.02,2.91,3.01,5.2,2.97Z"/>
    <path class="cls-1" d="m235.16,174.83h-14.05v-1.83c1.26,0,2.16-.12,2.71-.37.55-.25.89-.68,1.03-1.29.13-.61.2-1.43.2-2.46v-15.65c0-1.03-.2-1.7-.6-2.03-.4-.32-.98-.49-1.74-.49-.5,0-1.01.04-1.54.11v-1.88l7.71-1.66h1.88v5.31l.17,1.31v14.96c0,1.03.08,1.85.23,2.46.15.61.52,1.04,1.11,1.29.59.25,1.55.37,2.88.37v1.83Zm17.25,0h-14.05v-1.83c1.29,0,2.23-.12,2.8-.37.57-.25.93-.67,1.08-1.26.15-.59.23-1.42.23-2.48v-9.94c0-2.09-.23-3.69-.68-4.8-.46-1.1-1.08-1.85-1.86-2.23-.78-.38-1.63-.57-2.54-.57-1.03,0-1.95.19-2.77.57-.82.38-1.56.86-2.23,1.43-.67.57-1.32,1.12-1.97,1.66l-.34-3.08h.91c1.52-1.37,2.97-2.51,4.34-3.43,1.37-.91,2.95-1.37,4.74-1.37,2.7,0,4.75.88,6.14,2.66,1.39,1.77,2.08,4.37,2.08,7.79v11.31c0,1.03.08,1.85.26,2.46.17.61.55,1.04,1.14,1.29.59.25,1.49.37,2.71.37v1.83Z"/>
    <path class="cls-1" d="m269.25,174.83h-14.1v-1.83c1.26,0,2.17-.11,2.74-.34s.93-.65,1.08-1.26c.15-.61.23-1.45.23-2.51v-15.47c0-1.26-.22-2.03-.66-2.31-.44-.29-1.09-.43-1.97-.43-.38,0-.86.04-1.43.11v-1.88l7.65-1.6h2.23v21.53c0,1.1.09,1.96.26,2.57.17.61.56,1.03,1.17,1.26.61.23,1.54.34,2.8.34v1.83Zm-7.14-31.69c-1.07,0-1.94-.35-2.63-1.06-.68-.7-1.03-1.57-1.03-2.6s.33-1.88,1-2.57,1.55-1.03,2.66-1.03c1.18,0,2.09.34,2.74,1.03.65.69.97,1.54.97,2.57s-.32,1.89-.97,2.6c-.65.7-1.56,1.06-2.74,1.06Z"/>
    <path class="cls-1" d="m284.95,175.4c-2.44,0-4.6-.53-6.48-1.6s-3.35-2.66-4.4-4.77c-1.05-2.11-1.57-4.69-1.57-7.74,0-3.2.57-5.84,1.71-7.94,1.14-2.09,2.66-3.65,4.57-4.68,1.9-1.03,4.02-1.54,6.34-1.54,3.27,0,5.9,1.08,7.88,3.25,1.98,2.17,3.03,5.31,3.14,9.42h-18.39l-.06-2.28h11.99c-.04-1.48-.25-2.84-.63-4.05-.38-1.22-.96-2.19-1.74-2.91-.78-.72-1.8-1.08-3.06-1.08-2.06,0-3.57.84-4.54,2.51-.97,1.68-1.46,4.13-1.46,7.37,0,2.59.38,4.71,1.14,6.37.76,1.66,1.79,2.87,3.08,3.65,1.29.78,2.74,1.17,4.34,1.17s2.79-.19,3.8-.57c1.01-.38,1.87-.89,2.57-1.54.7-.65,1.36-1.37,1.97-2.17l1.2.91c-.53,1.07-1.12,2.1-1.77,3.11-.65,1.01-1.4,1.89-2.26,2.66-.86.76-1.88,1.36-3.08,1.8-1.2.44-2.64.66-4.31.66Z"/>
  </g>
  <g>
    <path class="cls-1" d="m318.8,176.06h-2l-.51-12.33h2.11c.65,2.59,1.41,4.57,2.28,5.94.88,1.37,1.94,2.3,3.2,2.8,1.26.5,2.78.74,4.57.74,1.37,0,2.58-.19,3.63-.57,1.05-.38,1.88-.99,2.48-1.83.61-.84.91-1.94.91-3.31,0-1.67-.44-3.06-1.31-4.14s-2.02-2.04-3.43-2.85c-1.41-.82-2.88-1.65-4.4-2.48-1.6-.88-3.12-1.8-4.57-2.77-1.45-.97-2.62-2.16-3.51-3.57-.89-1.41-1.34-3.16-1.34-5.25s.5-3.77,1.51-5.14c1.01-1.37,2.37-2.42,4.08-3.14,1.71-.72,3.65-1.08,5.82-1.08,1.64,0,2.93.13,3.88.4.95.27,1.71.54,2.28.83.57.29,1.08.43,1.54.43.42,0,.78-.11,1.08-.34.3-.23.53-.63.69-1.2h1.71l.34,11.59h-2c-.8-3.27-1.88-5.64-3.23-7.11-1.35-1.46-3.36-2.18-6.02-2.14-1.98,0-3.49.42-4.54,1.26-1.05.84-1.57,2.09-1.57,3.77,0,1.41.4,2.61,1.2,3.6.8.99,1.86,1.87,3.17,2.63s2.69,1.54,4.14,2.34c1.26.69,2.52,1.39,3.8,2.11,1.27.72,2.44,1.55,3.48,2.48,1.05.93,1.88,2.04,2.51,3.31.63,1.28.94,2.77.94,4.48,0,2.25-.53,4.15-1.6,5.71-1.07,1.56-2.54,2.74-4.43,3.54-1.88.8-4.03,1.2-6.42,1.2-1.94,0-3.49-.14-4.65-.43s-2.07-.57-2.71-.86c-.65-.29-1.18-.43-1.6-.43s-.77.17-1.06.51-.45.78-.49,1.31Z"/>
    <path class="cls-1" d="m358.6,175.83c-4.15,0-7.38-1.22-9.68-3.66-2.3-2.44-3.45-6-3.45-10.68,0-2.74.52-5.16,1.57-7.25,1.05-2.09,2.56-3.73,4.54-4.91,1.98-1.18,4.34-1.77,7.08-1.77,4.11,0,7.3,1.21,9.56,3.63,2.26,2.42,3.4,5.72,3.4,9.91,0,3.24-.53,5.95-1.6,8.14-1.07,2.19-2.58,3.84-4.54,4.94-1.96,1.1-4.25,1.66-6.88,1.66Zm.23-2.46c1.45,0,2.66-.38,3.63-1.14.97-.76,1.68-2.01,2.14-3.74s.69-4.08.69-7.05c0-3.5-.57-6.3-1.71-8.39-1.14-2.09-2.88-3.14-5.2-3.14-2.06,0-3.66.93-4.8,2.8-1.14,1.87-1.71,4.57-1.71,8.11,0,4.38.59,7.58,1.77,9.59s2.91,3.01,5.2,2.97Z"/>
    <path class="cls-1" d="m390.18,187.82h-15.53v-1.83c1.79,0,2.93-.29,3.43-.86s.74-1.66.74-3.25v-27.87c0-1.14-.12-1.92-.37-2.34-.25-.42-.85-.63-1.8-.63-.38,0-.99.04-1.83.11v-1.88l7.71-1.6h2v4.8h.23c1.41-1.56,2.82-2.77,4.23-3.63,1.41-.86,2.97-1.29,4.68-1.29,1.9,0,3.56.51,4.97,1.54,1.41,1.03,2.51,2.49,3.31,4.4.8,1.9,1.2,4.19,1.2,6.85,0,3.24-.56,6.01-1.68,8.31-1.12,2.3-2.64,4.07-4.54,5.31-1.9,1.24-4.02,1.86-6.34,1.86-1.07,0-2.08-.11-3.03-.34-.95-.23-1.85-.63-2.68-1.2h-.23v7.2c0,1.22.15,2.15.46,2.8.3.65.86,1.08,1.66,1.31.8.23,1.94.34,3.43.34v1.88Zm.17-14.5c1.87,0,3.41-.9,4.63-2.71,1.22-1.81,1.83-4.69,1.83-8.65,0-3.5-.52-6.05-1.57-7.65-1.05-1.6-2.52-2.4-4.43-2.4-1.41,0-2.65.37-3.71,1.11-1.07.74-1.88,1.46-2.46,2.14v14.68c.34.38.78.85,1.31,1.4.53.55,1.16,1.04,1.88,1.46.72.42,1.56.63,2.51.63Z"/>
    <path class="cls-1" d="m420.67,175.26h-14.05v-1.83c1.52,0,2.57-.22,3.14-.66.57-.44.86-1.44.86-3v-28.89c0-.99-.27-1.62-.8-1.88-.53-.27-1.18-.4-1.94-.4-.46,0-1.01.04-1.66.11v-1.83l8.05-1.94h2.17v34.6c0,.95.08,1.71.23,2.28.15.57.53.98,1.14,1.23.61.25,1.56.37,2.85.37v1.83Zm17.36,0h-13.99v-1.83c1.29,0,2.22-.13,2.77-.4s.89-.69,1.03-1.26c.13-.57.2-1.33.2-2.28v-9.25c0-1.52-.09-2.93-.29-4.23-.19-1.29-.64-2.32-1.34-3.08-.71-.76-1.82-1.14-3.34-1.14-1.14,0-2.28.29-3.4.86-1.12.57-2.45,1.58-3.97,3.03l.06-3.37h.91c1.71-1.67,3.26-2.88,4.65-3.63,1.39-.74,2.88-1.11,4.48-1.11s2.86.3,3.91.89,1.88,1.39,2.48,2.4c.61,1.01,1.04,2.15,1.29,3.43.25,1.28.37,2.6.37,3.97v11.08c0,1.52.26,2.59.77,3.2.51.61,1.65.91,3.4.91v1.83Z"/>
    <path class="cls-1" d="m454.87,175.26h-14.1v-1.83c1.26,0,2.17-.11,2.74-.34s.93-.65,1.08-1.26c.15-.61.23-1.45.23-2.51v-15.48c0-1.26-.22-2.03-.66-2.31-.44-.29-1.09-.43-1.97-.43-.38,0-.86.04-1.43.11v-1.88l7.65-1.6h2.23v21.53c0,1.1.09,1.96.26,2.57.17.61.56,1.03,1.17,1.26.61.23,1.54.34,2.8.34v1.83Zm-7.14-31.69c-1.07,0-1.94-.35-2.63-1.06-.68-.7-1.03-1.57-1.03-2.6s.33-1.88,1-2.57c.67-.69,1.55-1.03,2.66-1.03,1.18,0,2.09.34,2.74,1.03.65.68.97,1.54.97,2.57s-.32,1.89-.97,2.6c-.65.71-1.56,1.06-2.74,1.06Z"/>
    <path class="cls-1" d="m470.58,175.83c-2.44,0-4.6-.53-6.48-1.6-1.88-1.06-3.35-2.66-4.4-4.77-1.05-2.11-1.57-4.69-1.57-7.74,0-3.2.57-5.84,1.71-7.94,1.14-2.09,2.66-3.65,4.57-4.68,1.9-1.03,4.02-1.54,6.34-1.54,3.27,0,5.9,1.08,7.88,3.25,1.98,2.17,3.03,5.31,3.14,9.42h-18.39l-.06-2.28h11.99c-.04-1.49-.25-2.84-.63-4.05-.38-1.22-.96-2.19-1.74-2.91-.78-.72-1.8-1.08-3.06-1.08-2.06,0-3.57.84-4.54,2.51-.97,1.67-1.46,4.13-1.46,7.37,0,2.59.38,4.71,1.14,6.37.76,1.66,1.79,2.88,3.08,3.66,1.29.78,2.74,1.17,4.34,1.17s2.79-.19,3.8-.57c1.01-.38,1.87-.89,2.57-1.54.7-.65,1.36-1.37,1.97-2.17l1.2.91c-.53,1.07-1.12,2.1-1.77,3.11-.65,1.01-1.4,1.89-2.26,2.66-.86.76-1.88,1.36-3.08,1.8-1.2.44-2.64.66-4.31.66Z"/>
  </g>
</svg>