<?xml version="1.0" encoding="UTF-8"?>
<svg id="Layer_1" data-name="Layer 1" xmlns="http://www.w3.org/2000/svg" viewBox="0 0 200 200">
  <defs>
    <style>
      .cls-1 {
        fill: #fec89a;
      }
    </style>
  </defs>
  <path class="cls-1" d="m22.57,119.62s0,0,0,0c.31.21.68.27,1.04.15,2.24-.74,7.6-2.68,9.01-4.71,1.78-2.56,1.14-6.09-1.42-7.87-2.56-1.78-6.09-1.14-7.87,1.42-1.41,2.03-1.35,7.73-1.26,10.09.02.37.2.7.51.92Z"/>
  <path class="cls-1" d="m5.72,109.67c-2.34,2.06-2.58,5.64-.52,7.98,1.63,1.86,7.17,3.18,9.49,3.66.36.07.73-.02,1.01-.27,0,0,0,0,0,0,.28-.24.42-.6.4-.97-.18-2.35-.76-8.02-2.39-9.88-2.06-2.35-5.64-2.58-7.98-.52Z"/>
  <path class="cls-1" d="m24.74,124.79c-.36.11-.64.37-.77.71,0,0,0,0,0,0-.13.35-.09.73.11,1.04,1.26,1.99,4.43,6.72,6.75,7.6,2.92,1.11,6.19-.37,7.29-3.29,1.11-2.92-.37-6.19-3.28-7.29-2.31-.88-7.83.56-10.1,1.22Z"/>
  <path class="cls-1" d="m184.3,100.17c-7.89-9.79-21.11-17.57-39.33-23.14l-16.94-4.89c-12.41-4.22-21.91-8.86-28.21-13.81-6.15-4.82-9.26-11.43-9.26-19.64s3.56-14.95,10.89-19.59c7.37-4.66,15.32-7.02,23.65-7.02,9.06,0,15.92,1.65,20.39,4.91,4.52,3.3,9.19,9.1,13.89,17.25l13.47,23.87h5.2l2.34-42.22-.53-.28c-8.08-4.29-16.6-7.56-25.3-9.7-8.73-2.15-18.13-3.23-27.95-3.23-24.52,0-43.64,5.92-56.83,17.59-13.23,11.7-19.93,26.15-19.93,42.95,0,14.02,4.53,26.04,13.45,35.72,8.87,9.64,21.2,16.83,36.63,21.39l15.86,4.91c14.12,4.21,23.89,8.96,29.04,14.1,5.08,5.08,7.65,11.71,7.65,19.71,0,8.7-3.62,15.74-10.75,20.94-7.22,5.26-16.87,7.93-28.69,7.93-10.06,0-18.45-2.41-24.91-7.17-6.53-4.81-12.6-12.26-18.04-22.16l-13.1-23.11h-5.24l-.37,44.45c-17.54-11.48-27.91-29.46-31.74-54.43-.08-.51-.55-.87-1.06-.78-.51.08-.86.55-.78,1.06,6.24,40.62,29.29,63.16,71.81,69.59,7.15,1.29,14.87,1.95,23.07,1.95.8,0,1.57-.02,2.36-.03.9.01,1.78.03,2.7.03.14,0,.27-.04.39-.09,23.67-.74,42.51-6.34,56.06-16.7,14.64-11.2,22.06-26.3,22.06-44.89,0-13.73-4-25.67-11.9-35.48Z"/>
</svg>